<?xml version="1.0" encoding="utf-8"?>
<!-- Generator: Adobe Illustrator 19.2.1, SVG Export Plug-In . SVG Version: 6.00 Build 0)  -->
<svg version="1.1" id="layer" xmlns="http://www.w3.org/2000/svg" xmlns:xlink="http://www.w3.org/1999/xlink" x="0px" y="0px"
	 viewBox="0 0 652 652" style="enable-background:new 0 0 652 652;" xml:space="preserve">
<style type="text/css">
	.st0{fill:#AAAAAA;}
	.st1{fill-rule:evenodd;clip-rule:evenodd;fill:#FFDF1C;}
</style>
<path class="st0" d="M147.8,389.2c0,1.9,1.5,3,3.3,3c1.7,0,3.1-1.2,3.1-3c0-2.6-2.2-3.3-4.1-4c-1.6-0.5-2.9-1-4.1-2.2
	c-1.2-1.2-1.8-2.9-1.8-4.5c0-3.9,3.2-6.7,7-6.7c3.7,0,6.9,3,6.9,6.7h-4.5c-0.1-1.5-1.3-2.5-2.7-2.5c-1.4,0-2.4,1.1-2.3,2.5
	c0,1.7,1.6,2.4,3,2.9c1.7,0.6,3.3,1.1,4.6,2.2c1.7,1.3,2.5,3.1,2.5,5.4c0,4.2-3.5,7.5-7.7,7.5c-4,0-7.7-3.1-7.7-7.2H147.8z"/>
<polygon class="st0" points="169.3,372.2 173.7,372.2 173.7,381.6 182.1,381.6 182.1,372.2 186.5,372.2 186.5,395.8 182.1,395.8 
	182.1,385.9 173.7,385.9 173.7,395.8 169.3,395.8 "/>
<path class="st0" d="M208.5,376c4.4,0,7.9,3.6,7.9,8c0,4.4-3.6,8.1-7.9,8.1c-4.3,0-7.9-3.8-7.9-8.1C200.6,379.6,204.1,376,208.5,376
	 M208.5,371.7c-6.8,0-12.3,5.5-12.3,12.4c0,6.8,5.6,12.3,12.3,12.3c6.7,0,12.3-5.5,12.3-12.3C220.8,377.2,215.3,371.7,208.5,371.7"
	/>
<path class="st0" d="M253.3,389.4c-1.8,4.3-6.4,7-11,7c-6.8,0-12.3-5.7-12.3-12.4c0-6.7,5.5-12.3,12.1-12.3c4.7,0,9.4,2.8,11.2,7.2
	h-5c-1.5-1.8-3.8-2.9-6.2-2.9c-4.3,0-7.8,3.7-7.8,8.2c0,4.2,3.6,8,7.8,8c2.3,0,4.4-1.1,6-2.8H253.3z"/>
<polygon class="st0" points="262.7,372.2 267.1,372.2 267.1,382.4 274.4,372.2 279.7,372.2 270.8,383.8 279.7,395.8 274.4,395.8 
	267.1,385.5 267.1,395.8 262.7,395.8 "/>
<path class="st0" d="M293,389.2c0,1.9,1.5,3,3.3,3c1.7,0,3.1-1.2,3.1-3c0-2.6-2.2-3.3-4.1-4c-1.6-0.5-2.9-1-4.1-2.2
	c-1.2-1.2-1.9-2.9-1.9-4.5c0-3.9,3.2-6.7,7-6.7c3.6,0,6.9,3,6.9,6.7h-4.5c-0.1-1.5-1.3-2.5-2.7-2.5c-1.4,0-2.4,1.1-2.3,2.5
	c0,1.7,1.6,2.4,3,2.9c1.7,0.6,3.3,1.1,4.6,2.2c1.7,1.3,2.5,3.1,2.5,5.4c0,4.2-3.5,7.5-7.7,7.5c-4,0-7.6-3.1-7.6-7.2H293z"/>
<path class="st0" d="M338.2,380.4c-0.7-0.7-1.6-1.6-1.6-2.7c0-1.1,0.8-1.9,1.9-1.9c1.3,0,2,0.7,2.1,1.9
	C340.6,379.2,339.4,379.9,338.2,380.4 M345.4,381.9l-2.3,3.9l-2.2-2.4c2.3-1.3,3.7-3.1,3.7-5.8c0-3.4-2.8-5.8-6-5.8
	c-3.5,0-6,2.7-6,6.1c0,1.8,0.8,3,2,4.3c-2.6,1.5-4.4,3.5-4.4,6.8c0,4.3,3.7,7.5,7.9,7.5c2.5,0,4.5-1.6,5.9-3.5l3.2,3.4l3.1-2.7
	L346,389l4.1-7.1H345.4z M340.9,389.6c-0.7,1.3-1.7,2.6-3.3,2.6c-1.8,0-3.2-1.2-3.2-3.1c0-1.9,1.4-3,2.9-3.6L340.9,389.6z"/>
<path class="st0" d="M380.1,389.2c0,1.9,1.5,3,3.3,3c1.7,0,3.1-1.2,3.1-3c0-2.6-2.2-3.3-4.1-4c-1.6-0.5-2.9-1-4.1-2.2
	c-1.2-1.2-1.9-2.9-1.9-4.5c0-3.9,3.2-6.7,7-6.7c3.7,0,6.9,3,6.9,6.7h-4.5c-0.1-1.5-1.3-2.5-2.7-2.5c-1.4,0-2.4,1.1-2.3,2.5
	c0,1.7,1.6,2.4,3,2.9c1.7,0.6,3.3,1.1,4.6,2.2c1.7,1.3,2.5,3.1,2.5,5.4c0,4.2-3.5,7.5-7.7,7.5c-4,0-7.6-3.1-7.6-7.2H380.1z"/>
<polygon class="st0" points="403.3,376.4 398.9,376.4 398.9,372.2 412.1,372.2 412.1,376.4 407.7,376.4 407.7,395.8 403.3,395.8 "/>
<path class="st0" d="M425.7,383.4v-7h2.4c1.2,0,2.2,0,3.3,0.8c0.8,0.6,1.3,1.6,1.3,2.7c0,1-0.4,1.9-1.1,2.6c-0.9,0.8-2.3,1-3.5,1
	H425.7z M421.4,395.8h4.4v-9.1h0.1l6.1,9.1h5.4l-6.4-8.7c1.6-0.4,3-1,4.2-2.3c1.2-1.3,2-3.4,2-5.2c0-2.2-1.1-4.4-2.8-5.8
	c-1.8-1.5-3.9-1.6-6.1-1.7h-6.9V395.8z"/>
<path class="st0" d="M451.5,372.2v14.7c0,1.1-0.1,2.2,0.4,3.2c0.6,1.2,1.8,2,3.1,2c1.2,0,2.3-0.6,3-1.7c0.7-1.1,0.6-2.3,0.6-3.6
	v-14.7h4.4v14.7c0,2.3-0.2,4.6-1.7,6.4c-1.5,1.8-3.9,3.1-6.3,3.1c-2.2,0-4.6-1.2-6-2.9c-1.7-2-1.9-4.1-1.9-6.6v-14.7H451.5z"/>
<polygon class="st0" points="475.7,376.4 471.4,376.4 471.4,372.2 484.5,372.2 484.5,376.4 480.1,376.4 480.1,395.8 475.7,395.8 "/>
<path class="st0" d="M497.3,389.2c0,1.9,1.5,3,3.3,3c1.7,0,3.1-1.2,3.1-3c0-2.6-2.2-3.3-4.1-4c-1.6-0.5-2.9-1-4.1-2.2
	c-1.2-1.2-1.9-2.9-1.9-4.5c0-3.9,3.2-6.7,7-6.7c3.6,0,6.9,3,6.9,6.7H503c-0.1-1.5-1.3-2.5-2.7-2.5c-1.4,0-2.4,1.1-2.3,2.5
	c0,1.7,1.6,2.4,3,2.9c1.7,0.6,3.3,1.1,4.6,2.2c1.7,1.3,2.5,3.1,2.5,5.4c0,4.2-3.5,7.5-7.7,7.5c-4,0-7.6-3.1-7.6-7.2H497.3z"/>
<path class="st1" d="M602.1,354c2.8,0,5.1-2.1,5.1-5.1c0-2.9-2.4-5.1-5.1-5.1c-2.8,0-5.2,2.2-5.2,5.1
	C596.9,351.9,599.3,354,602.1,354 M597.9,348.9c0-2.4,1.8-4.2,4.1-4.2c2.3,0,4.1,1.8,4.1,4.2c0,2.5-1.8,4.3-4.1,4.3
	C599.7,353.2,597.9,351.4,597.9,348.9 M601,349.3h1l1.5,2.5h1l-1.7-2.6c0.9-0.1,1.5-0.6,1.5-1.6c0-1.2-0.7-1.7-2.1-1.7h-2.2v5.9h0.9
	V349.3z M601,348.5v-1.8h1.2c0.6,0,1.3,0.1,1.3,0.9c0,0.9-0.7,1-1.4,1H601z"/>
<polygon class="st1" points="114.4,352.5 94.5,352.5 121.8,258.6 141.2,304.9 160.5,258.4 187.8,352.5 167.9,352.5 156.9,313.5 
	141.2,355 125,313.5 "/>
<polygon class="st1" points="294.2,352.5 275,352.5 275,258.6 313.3,303 313.3,261.3 332.8,261.3 332.8,356.9 294.2,311.4 "/>
<polygon class="st1" points="558.6,352.4 497.1,352.5 497.1,261.3 533.1,261.3 538,279.1 515.9,279.1 515.9,296.1 542.8,296.1 
	548.2,315.1 515.9,315.1 515.9,333.9 553.5,333.9 "/>
<polygon class="st1" points="638.5,261.4 538.1,261.4 543.9,281.3 627.9,281.3 "/>
<polygon class="st1" points="544.8,284.7 625.9,284.7 614.6,305.4 550.7,305.4 "/>
<polygon class="st1" points="612.6,308.7 551.7,308.7 557.5,329.2 601.4,329.2 "/>
<polygon class="st1" points="599.5,332.9 558.5,332.9 564.2,352.6 588.6,352.6 "/>
<polygon class="st1" points="14.9,261.1 115.3,261.1 109.5,281 25.6,281 "/>
<polygon class="st1" points="108.6,284.3 27.6,284.3 38.8,305 102.8,305 "/>
<polygon class="st1" points="40.8,308.4 101.8,308.4 96,328.9 52.1,328.9 "/>
<polygon class="st1" points="53.9,332.5 95,332.5 89.3,352.3 64.8,352.3 "/>
<path class="st1" d="M179.4,307.2c0-26.5,21-47.9,46.9-47.9s46.9,21.4,46.9,47.9c0,26.4-21,47.9-46.9,47.9S179.4,333.6,179.4,307.2
	 M198.8,307.2c0-16,12.2-29,27.3-29c15.1,0,27.4,13,27.4,29c0,16-12.2,28.9-27.4,28.9C211.1,336.1,198.8,323.1,198.8,307.2"/>
<path class="st1" d="M356.7,313v39.5h-18.2v-91.2h36c0,0,11.8,0.2,19.5,8c8.6,8.8,7.4,20.6,7.4,20.6s0.3,10-5.6,17.8
	c-5.6,7.5-13.4,9.5-13.4,9.5l22.3,35.3h-21.9L356.7,313z M356.8,303.5v-25.2h14.7c0,0,10.6,0.7,10.6,12.7
	c0,10.7-10.6,12.5-10.6,12.5H356.8z"/>
<path class="st1" d="M401.6,307.3c0-26.4,21-47.9,46.9-47.9c25.9,0,46.9,21.4,46.9,47.9c0,26.5-21,47.9-46.9,47.9
	C422.6,355.1,401.6,333.7,401.6,307.3 M421.1,307.3c0-16,12.2-28.9,27.3-28.9c15.1,0,27.4,13,27.4,28.9c0,16-12.3,29-27.4,29
	C433.3,336.2,421.1,323.2,421.1,307.3"/>
</svg>
