<?xml version="1.0" encoding="utf-8"?>
<!-- Generator: Adobe Illustrator 19.2.1, SVG Export Plug-In . SVG Version: 6.00 Build 0)  -->
<svg version="1.1" id="layer" xmlns="http://www.w3.org/2000/svg" xmlns:xlink="http://www.w3.org/1999/xlink" x="0px" y="0px"
	 viewBox="0 0 652 652" style="enable-background:new 0 0 652 652;" xml:space="preserve">
<style type="text/css">
	.st0{fill:#D24023;}
	.st1{fill:#293C90;}
</style>
<path class="st0" d="M296.1,279.7c-39.8,0-72,32.3-72,72s32.3,72,72,72c39.8,0,72-32.3,72-72S335.9,279.7,296.1,279.7 M296,383.4
	c-17.6,0-31.9-14.3-31.9-31.9c0-17.6,14.3-31.9,31.9-31.9c17.6,0,31.9,14.3,31.9,31.9C327.9,369.1,313.6,383.4,296,383.4"/>
<polygon class="st1" points="110.1,348.5 75.7,231.1 15.3,231.1 15.3,418.9 54.8,418.9 54.8,287.3 90.8,418.6 126,418.6 
	164.6,288.2 164.6,418.6 203.2,418.6 203.2,231.1 145.3,231.1 "/>
<path class="st1" d="M459.3,280.2c-14.9,0-28.6,5.2-39.8,14v-63.1h-38.6v187.5h38.6v-8.4c11.2,8.8,24.9,14,39.8,14
	c37.2,0,67.4-32.3,67.4-72C526.6,312.5,496.5,280.2,459.3,280.2 M454.6,384.5c-17.6,0-31.9-14.3-31.9-31.9
	c0-17.6,14.3-31.9,31.9-31.9c17.6,0,31.9,14.3,31.9,31.9C486.5,370.2,472.2,384.5,454.6,384.5"/>
<rect x="600.4" y="231.2" class="st1" width="38.6" height="187.5"/>
<rect x="541.2" y="279.8" class="st1" width="38.6" height="139.3"/>
<rect x="540.8" y="230.4" class="st1" width="39.3" height="39.3"/>
</svg>
