<?xml version="1.0" encoding="utf-8"?>
<!-- Generator: Adobe Illustrator 19.2.1, SVG Export Plug-In . SVG Version: 6.00 Build 0)  -->
<svg version="1.1" id="layer" xmlns="http://www.w3.org/2000/svg" xmlns:xlink="http://www.w3.org/1999/xlink" x="0px" y="0px"
	 viewBox="0 0 652 652" style="enable-background:new 0 0 652 652;" xml:space="preserve">
<style type="text/css">
	.st0{fill:#ec1d24;}
	.st1{fill:#FFFFFF;}
	.st2{fill:none;stroke:#FFFFFF;stroke-width:17.5079;stroke-miterlimit:2;}
	.st3{fill:#000;}
	.st4{fill:none;stroke:#FFFFFF;stroke-width:13.0025;stroke-linejoin:round;}
</style>
<g>
	<path class="st0" d="M131.3,312.1L18.4,367.8c5.5,42.6,19.7,82.6,40.6,118l185.6-171.9L69.7,502.5c25.1,36.9,57.9,68.1,96.2,91.4
		l129.3-284.6l-110.8,295c39.5,20.5,84,32.9,131.2,34.7l12-323.3l12,323.2c47.2-1.8,91.7-14.2,131.2-34.7l-110.8-295l129.3,284.6
		c38.2-23.2,71-54.5,96.2-91.4L410.6,313.8l185.6,171.9c21-35.4,35.1-75.4,40.6-118l-111.6-55.1l113.4,38.2
		c0.6-7.8,0.9-15.7,0.9-23.6c0-30.9-4.5-60.7-12.9-88.9l-142.6-7.4l137.8-7.4c-11.5-32.5-28.1-62.5-49-89l-48.9,15.1l42.7-22.8
		c-19.2-22.8-41.6-42.9-66.5-59.4L410.4,148l78.8-87.5c-21.8-13.3-45.4-23.9-70.3-31.5l-58.6,123l44.9-126.8
		c-22.6-5.8-46.2-9.1-70.5-9.7l-7.1,129.9l-7.1-129.9c-24.3,0.5-47.9,3.9-70.5,9.7l44.9,126.8L236.3,29
		c-24.9,7.6-48.5,18.3-70.3,31.5l78.8,87.5l-89.5-80.7c-24.5,16.3-46.6,36-65.6,58.4l102,48.8l-110-38.9
		c-20.8,26.6-37.3,56.7-48.6,89.2l68.8,6l-72.8,6.1c-8.6,28.6-13.3,58.9-13.3,90.3c0,7.9,0.3,15.8,0.9,23.6L131.3,312.1z"/>
	<path class="st1" d="M194.4,384.1c1.1,2.7,1.7,5.2,1.8,8.5c-8.8,0-15.1,0-22.3,0c-0.9-1.7-2.2-4.2-4.7-4.9
		c-3.6-1.3-9.1-1.1-12.3,0.8c-2,0.9-2.4,3-1.3,4.4c3.3,2.8,8,2.9,12.3,4c12,2.3,27.2,5.1,31.2,16.9c2,6.8,0.4,13.9-4.7,19
		c-11.8,11.4-31.4,11-47.3,7.2c-8.9-2.3-16.6-10.2-17.5-17.7c-0.1-1-0.2-1.7-0.1-2.4c3.4,0,22.6,0,22.6,0c2,0.6,1.3,2,2.8,3.2
		c3.6,4.4,9.8,4.4,15.4,3.4c2-0.8,4.2-1.3,5.6-3.4c0.9-2.1,0-4.6-2.7-5.3c-15.4-5.1-40.6-5.3-41.4-24.5c-0.7-6.5,2.2-11.6,7.8-15.9
		c13.2-7,33.9-7.2,47.5-0.5C190.4,378.3,192.6,381.4,194.4,384.1"/>
	<path class="st2" d="M194.4,384.1c1.1,2.7,1.7,5.2,1.8,8.5c-8.8,0-15.1,0-22.3,0c-0.9-1.7-2.2-4.2-4.7-4.9
		c-3.6-1.3-9.1-1.1-12.3,0.8c-2,0.9-2.4,3-1.3,4.4c3.3,2.8,8,2.9,12.3,4c12,2.3,27.2,5.1,31.2,16.9c2,6.8,0.4,13.9-4.7,19
		c-11.8,11.4-31.4,11-47.3,7.2c-8.9-2.3-16.6-10.2-17.5-17.7c-0.1-1-0.2-1.7-0.1-2.4c3.4,0,22.6,0,22.6,0c2,0.6,1.3,2,2.8,3.2
		c3.6,4.4,9.8,4.4,15.4,3.4c2-0.8,4.2-1.3,5.6-3.4c0.9-2.1,0-4.6-2.7-5.3c-15.4-5.1-40.6-5.3-41.4-24.5c-0.7-6.5,2.2-11.6,7.8-15.9
		c13.2-7,33.9-7.2,47.5-0.5C190.4,378.3,192.6,381.4,194.4,384.1z"/>
	<path class="st3" d="M194.4,384.1c1.2,3.1,1.8,5.5,1.8,8.5c-8.9,0-15.4,0-22.3,0c-0.9-1.7-2.2-4.2-4.7-4.9
		c-3.6-1.3-9.1-1.1-12.3,0.8c-2,0.9-2.4,3-1.3,4.4c3.3,2.8,8,2.9,12.3,4c12,2.3,27.2,5.1,31.2,16.9c2,6.8,0.4,13.9-4.7,19
		c-11.8,11.4-32.1,11-47.9,7.2c-9-2.5-16.5-10.5-17.3-18c-0.1-0.8-0.2-2.5,0-3.3c3.5,0,22.9,0,22.9,0c2,0.6,1.3,3.3,2.9,4.4
		c3.6,4.4,9.8,4.4,15.4,3.4c2-0.8,4.2-1.3,5.6-3.4c0.9-2.1,0-4.6-2.7-5.3c-15.4-5.1-40.6-5.3-41.4-24.5c-0.7-6.5,2.2-11.6,7.8-15.9
		c13.2-7,33.9-7.2,47.5-0.5C190.4,378.3,192.6,381.4,194.4,384.1"/>
	<path class="st1" d="M439.6,484.6c1.1,2.9,3.7,5.7,2.4,8.9c-6.8,0.4-14,0.2-20.6,0.2c-1.5-2.9-3.9-5.5-7.4-6.8
		c-4.4-1.3-9.9-0.8-13.4,1.9c-7.4,5.9-6.8,16.1-4.6,24.1c1.5,4.4,5.9,9.5,11.4,10.3c4.6,0.6,9.2,0.2,12.5-2.3c1.3-1.5,3.3-3,3.3-4.9
		c-2.6-1-5.9-0.4-8.8-0.6h-0.7l0-13.8c15.2,0,16.5,0,31.4,0l-0.1,36.4c-4.3,0-9.1,0-14.1,0c-1-2-1.3-3.8-2.4-6.1
		c-7.7,6.8-18.2,9.1-29.3,7.2c-10.5-1.9-20.4-10.3-24.1-19c-6.1-12.4-5.2-29.4,5.5-39.9c9.6-10.4,26.5-13.1,41.2-9.1
		C428.9,473,436.1,478.8,439.6,484.6"/>
	<path class="st2" d="M439.6,484.6c1.1,2.9,3.7,5.7,2.4,8.9c-6.8,0.4-14,0.2-20.6,0.2c-1.5-2.9-3.9-5.5-7.4-6.8
		c-4.4-1.3-9.9-0.8-13.4,1.9c-7.4,5.9-6.8,16.1-4.6,24.1c1.5,4.4,5.9,9.5,11.4,10.3c4.6,0.6,9.2,0.2,12.5-2.3c1.3-1.5,3.3-3,3.3-4.9
		c-2.6-1-5.9-0.4-8.8-0.6h-0.7l0-13.8c15.2,0,16.5,0,31.4,0l-0.1,36.4c-4.3,0-9.1,0-14.1,0c-1-2-1.3-3.8-2.4-6.1
		c-7.7,6.8-18.2,9.1-29.3,7.2c-10.5-1.9-20.4-10.3-24.1-19c-6.1-12.4-5.2-29.4,5.5-39.9c9.6-10.4,26.5-13.1,41.2-9.1
		C428.9,473,436.1,478.8,439.6,484.6z"/>
	<path class="st1" d="M314.4,514.7c0.2,2.7,3.5,5.2,5.9,6.8c3.9,1.1,9.2,1.7,12.9-0.8c2.6-1.7,3.9-4.2,4.6-6.7l0-44l18.6,0l4.2,0
		l0,46.3c-0.9,9.3-9.4,18-19.4,20.5c-15.2,2.5-35.2,3.6-44.8-9c-3-4.2-4.1-9.2-4.6-14.4l0-43.5c7.1,0,15.3,0,22.6,0L314.4,514.7z"/>
	<path class="st2" d="M314.4,514.7c0.2,2.7,3.5,5.2,5.9,6.8c3.9,1.1,9.2,1.7,12.9-0.8c2.6-1.7,3.9-4.2,4.6-6.7l0-44l18.6,0l4.2,0
		l0,46.3c-0.9,9.3-9.4,18-19.4,20.5c-15.2,2.5-35.2,3.6-44.8-9c-3-4.2-4.1-9.2-4.6-14.4l0-43.5c7.1,0,15.3,0,22.6,0L314.4,514.7z"/>
	<path class="st1" d="M259.1,373.5c10.3,1,21,7.5,24,15.9c3.3,8.9,0.9,18.8-7.8,25.1c-9.4,8-26.1,4.7-37.1,6.6
		c0,7.4-0.1,19.4-0.1,19.4l-25.3,0l0.1-66.9L259.1,373.5z"/>
	<path class="st2" d="M259.1,373.5c10.3,1,21,7.5,24,15.9c3.3,8.9,0.9,18.8-7.8,25.1c-9.4,8-26.1,4.7-37.1,6.6
		c0,7.4-0.1,19.4-0.1,19.4l-25.3,0l0.1-66.9L259.1,373.5z"/>
	<polygon class="st1" points="356.6,440.8 335.7,440.9 331.9,431.6 309.4,431.7 305.1,440.8 284.1,440.9 311,373.3 331.3,373.5 	"/>
	<polygon class="st2" points="356.6,440.8 335.7,440.9 331.9,431.6 309.4,431.7 305.1,440.8 284.1,440.9 311,373.3 331.3,373.5 	"/>
	<polygon class="st1" points="476,373.4 476,394.5 497.2,373.4 523.8,373.4 498.3,400 527.4,440.8 499.8,440.9 482.4,415.6 
		476,420.8 476.1,440.9 453.7,440.9 453.8,373.4 	"/>
	<polygon class="st2" points="476,373.4 476,394.5 497.2,373.4 523.8,373.4 498.3,400 527.4,440.8 499.8,440.9 482.4,415.6 
		476,420.8 476.1,440.9 453.7,440.9 453.8,373.4 	"/>
	<path class="st1" d="M205.2,486.5c3,8.6,1.2,18.4-7.1,24.7c-8.8,7.3-24,6.1-37.9,6.2c0,5.8,0,9.4,0,15.7l-0.1,4.4
		c-8.2,0-16.1,0-24.9,0l0.1-67.4c2.9,0,20.4,0,24.9,0C172.7,470,199.1,467.7,205.2,486.5"/>
	<path class="st2" d="M205.2,486.5c3,8.6,1.2,18.4-7.1,24.7c-8.8,7.3-24,6.1-37.9,6.2c0,5.8,0,9.4,0,15.7l-0.1,4.4
		c-8.2,0-16.1,0-24.9,0l0.1-67.4c2.9,0,20.4,0,24.9,0C172.7,470,199.1,467.7,205.2,486.5z"/>
	<path class="st1" d="M241.9,470.1l0,50.1l8.4-0.1h30.8c0,5.8,0,11.8,0,17.3l-64,0.1l0-5v-62.5l5.2,0
		C230.9,470.1,234.3,470.1,241.9,470.1"/>
	<path class="st2" d="M241.9,470.1l0,50.1l8.4-0.1h30.8c0,5.8,0,11.8,0,17.3l-64,0.1l0-5v-62.5l5.2,0
		C230.9,470.1,234.3,470.1,241.9,470.1z"/>
	<path class="st1" d="M415.1,373.4c9.4,1,18.9,6.6,22,14.9c1.7,7-0.2,14.4-6.8,19.4l-3.9,2.3c2.6,2.3,6.5,4.6,8,8
		c3,6.8,1.7,15.6,3.7,23c-13.9-0.2-11.3-0.2-22.6,0c-2-4.9-1.1-11-2.6-16.3c-0.7-2.5-2.8-4.9-5.4-6.3c-3.7-1.1-9.4-0.7-13.7-0.9
		l0.1,0.6c0,7.7,0,15.5,0,22.7l-23,0l0-17.4v-50.1l4.7,0L415.1,373.4z"/>
	<path class="st2" d="M415.1,373.4c9.4,1,18.9,6.6,22,14.9c1.7,7-0.2,14.4-6.8,19.4l-3.9,2.3c2.6,2.3,6.5,4.6,8,8
		c3,6.8,1.7,15.6,3.7,23c-13.9-0.2-11.3-0.2-22.6,0c-2-4.9-1.1-11-2.6-16.3c-0.7-2.5-2.8-4.9-5.4-6.3c-3.7-1.1-9.4-0.7-13.7-0.9
		l0.1,0.6c0,7.7,0,15.5,0,22.7l-23,0l0-17.4v-50.1l4.7,0L415.1,373.4z"/>
	<path class="st1" d="M412.7,392.2c2.2,2.3,1.5,5.3,0.6,7.8c-4.4,5.1-13.1,2.7-19.6,3c0.1-4.3,0.1-7.7,0-12.8
		c5.4-0.6,10.9-0.9,16.4,0.2L412.7,392.2z"/>
	<path class="st2" d="M412.7,392.2c2.2,2.3,1.5,5.3,0.6,7.8c-4.4,5.1-13.1,2.7-19.6,3c0.1-4.3,0.1-7.7,0-12.8
		c5.4-0.6,10.9-0.9,16.4,0.2L412.7,392.2z"/>
	<path class="st1" d="M258.5,394.2c0.7,2.5,1.4,6.1-1.6,8c-1.2,0.8-2.1,1.7-5.9,1.9c-4.4,0-8.1,0-12.6,0c0.1-4.2,0-8.6,0-13.1
		l0.9-0.6C245.8,391.1,255.4,387.9,258.5,394.2"/>
	<path class="st2" d="M258.5,394.2c0.7,2.5,1.4,6.1-1.6,8c-1.2,0.8-2.1,1.7-5.9,1.9c-4.4,0-8.1,0-12.6,0c0.1-4.2,0-8.6,0-13.1
		l0.9-0.6C245.8,391.1,255.4,387.9,258.5,394.2z"/>
	<path class="st1" d="M178.9,489.5c2.8,2.1,3,4.6,1.9,7.5c-3.8,5.9-14.1,3.9-20.6,3.9c0-4.6,0-8.6,0-13.4
		C166.5,487.7,173.8,486.7,178.9,489.5"/>
	<path class="st2" d="M178.9,489.5c2.8,2.1,3,4.6,1.9,7.5c-3.8,5.9-14.1,3.9-20.6,3.9c0-4.6,0-8.6,0-13.4
		C166.5,487.7,173.8,486.7,178.9,489.5z"/>
	<polygon class="st1" points="326.2,416.6 315,416.6 320.7,400.3 	"/>
	<polygon class="st2" points="326.2,416.6 315,416.6 320.7,400.3 	"/>
	<polyline class="st1" points="523.3,371.2 529,371.2 524.1,376.2 	"/>
	<polyline class="st4" points="523.3,371.2 529,371.2 524.1,376.2 	"/>
	<polygon class="st1" points="401,496.5 401.5,513.5 409.5,519.5 411,509 411.5,494.5 405.5,491.5 	"/>
	<polyline class="st1" points="525.9,443.1 531.6,443 527.4,437.2 	"/>
	<polyline class="st4" points="525.9,443.1 531.6,443 527.4,437.2 	"/>
	<path class="st3" d="M439.6,484.6c1.1,2.9,3.7,5.7,2.4,8.9c-6.8,0.4-14,0.2-20.6,0.2c-1.5-2.9-3.9-5.5-7.4-6.8
		c-4.4-1.3-9.9-0.8-13.4,1.9c-7.4,5.9-6.8,16.1-4.6,24.1c1.5,4.4,5.9,9.5,11.4,10.3c4.6,0.6,9.2,0.2,12.5-2.3c1.3-1.5,3.3-3,3.3-4.9
		c-2.6-1-5.9-0.4-8.8-0.6h-0.7l0-13.8c15.2,0,16.5,0,31.4,0l-0.1,36.4c-4.3,0-9.1,0-14.1,0c-1-2-1.3-3.8-2.4-6.1
		c-7.7,6.8-18.2,9.1-29.3,7.2c-10.5-1.9-20.4-10.3-24.1-19c-6.1-12.4-5.2-29.4,5.5-39.9c9.6-10.4,26.5-13.1,41.2-9.1
		C428.9,473,436.1,478.8,439.6,484.6"/>
	<path class="st3" d="M314.4,514.7c0.2,2.7,3.5,5.2,5.9,6.8c3.9,1.1,9.2,1.7,12.9-0.8c2.6-1.7,3.9-4.2,4.6-6.7l0-44l17.2,0l5.6,0
		l0,46.3c-0.9,9.3-9.4,18-19.4,20.5c-15.2,2.5-35.2,3.6-44.8-9c-3-4.2-4.1-9.2-4.6-14.4l0-43.5c7.1,0,15.3,0,22.6,0L314.4,514.7z"/>
	<path class="st3" d="M259.3,373.5c10.3,1,20.8,7.5,23.8,15.9c3.3,8.9,0.9,18.8-7.8,25.1c-9.4,8-26.1,4.7-37.1,6.6
		c0,7.2,0,19.4,0,19.4l-25.4,0l0.1-66.9L259.3,373.5z"/>
	<polygon class="st3" points="356.6,440.8 335.7,440.9 331.9,431.6 309.4,431.7 305.1,440.8 284.1,440.9 311,373.3 331.3,373.5 	"/>
	<polygon class="st3" points="476,373.4 476,394.5 497.2,373.4 523.8,373.4 498.3,400 527.4,440.8 499.8,440.9 482.4,415.6 
		476,420.8 476.1,440.9 453.7,440.9 453.8,373.4 	"/>
	<path class="st3" d="M205.2,486.5c3,8.6,1.2,18.4-7.1,24.7c-8.8,7.3-24,6.1-37.9,6.2c0,5.8,0,9.4,0,15.7l-0.1,4.4
		c-8.2,0-16.1,0-24.9,0l0.1-67.4c2.9,0,20.4,0,24.9,0C172.7,470,199.1,467.7,205.2,486.5"/>
	<path class="st3" d="M241.9,470.1l0,50.1l8.4-0.1h30.8c0,5.8,0,11.8,0,17.3l-64,0.1l0-5v-62.5l5.2,0
		C230.9,470.1,234.3,470.1,241.9,470.1"/>
	<path class="st3" d="M415.1,373.4c9.4,1,18.9,6.6,22,14.9c1.7,7-0.2,14.4-6.8,19.4l-3.9,2.3c2.6,2.3,6.5,4.6,8,8
		c3,6.8,1.7,15.6,3.7,23c-13.9-0.2-11.3-0.2-22.6,0c-2-4.9-1.1-11-2.6-16.3c-0.7-2.5-2.8-4.9-5.4-6.3c-3.7-1.1-9.4-0.7-13.7-0.9
		l0.1,0.6c0,7.7,0,15.5,0,22.7l-23,0l0-17.4v-50.1l4.7,0L415.1,373.4z"/>
	<path class="st1" d="M412.7,392.2c2.2,2.3,1.5,5.3,0.6,7.8c-4.4,5.1-13.1,2.7-19.6,3c0.1-4.3,0.1-7.7,0-12.8
		c5.4-0.6,10.9-0.9,16.4,0.2L412.7,392.2z"/>
	<path class="st1" d="M250,390.1c3,0,7.4,1.3,8.5,4.1c0.7,2.5,1.1,6.4-1.6,8.2c-1.1,0.9-2.4,1.6-4.9,1.7c-5.6,0.1-13.7,0-13.7,0
		l0-13.6l1,0C241.1,390.3,245.4,390.2,250,390.1"/>
	<path class="st1" d="M178.9,489.5c2.8,2.1,3,4.6,1.9,7.5c-3.8,5.9-14.1,3.9-20.6,3.9c0-4.6,0-8.6,0-13.4
		C166.5,487.7,173.8,486.7,178.9,489.5"/>
	<polygon class="st1" points="326.2,416.6 315,416.6 320.7,400.3 	"/>
	<path class="st1" d="M522.7,480c1.3,2,2.1,4.9,1.8,8.8c-8.8,0-15.8,0-23,0c-0.9-1.7-2.2-4.2-4.7-4.9c-3.6-1.3-9.1-1.1-12.3,0.8
		c-2,0.9-2.4,3-1.3,4.4c3.3,2.9,8,2.9,12.2,4c12,2.3,27.2,5.1,31.2,16.9c2,6.8,0.4,13.9-4.7,19c-11.8,11.4-31.4,11-47.2,7.2
		c-8.9-2.3-17-10.5-17.7-18.7c-0.1-0.8,0.1-1.2,0.1-2c4.3-0.1,22.5,0,22.5,0c2,0.6,1.3,2.7,2.9,3.8c3.6,4.4,9.8,4.4,15.4,3.4
		c2-0.8,4.2-1.3,5.6-3.4c0.9-2.1,0-4.6-2.7-5.3c-15.4-5.1-40.6-5.3-41.4-24.5c-0.7-6.5,2.2-11.6,7.8-16c13.2-7,34.3-7.2,47.8-0.5
		C518.4,474.6,520.9,477.4,522.7,480"/>
	<path class="st2" d="M522.7,480c1.3,2,2.1,4.9,1.8,8.8c-8.8,0-15.8,0-23,0c-0.9-1.7-2.2-4.2-4.7-4.9c-3.6-1.3-9.1-1.1-12.3,0.8
		c-2,0.9-2.4,3-1.3,4.4c3.3,2.9,8,2.9,12.2,4c12,2.3,27.2,5.1,31.2,16.9c2,6.8,0.4,13.9-4.7,19c-11.8,11.4-31.4,11-47.2,7.2
		c-8.9-2.3-17-10.5-17.7-18.7c-0.1-0.8,0.1-1.2,0.1-2c4.3-0.1,22.5,0,22.5,0c2,0.6,1.3,2.7,2.9,3.8c3.6,4.4,9.8,4.4,15.4,3.4
		c2-0.8,4.2-1.3,5.6-3.4c0.9-2.1,0-4.6-2.7-5.3c-15.4-5.1-40.6-5.3-41.4-24.5c-0.7-6.5,2.2-11.6,7.8-16c13.2-7,34.3-7.2,47.8-0.5
		C518.4,474.6,520.9,477.4,522.7,480z"/>
	<path class="st3" d="M522,480.3c1.6,2.9,1.8,4.9,1.8,8.5c-8.9,0-15.4,0-22.3,0c-0.9-1.7-2.2-4.2-4.7-4.9c-3.6-1.3-9.1-1.1-12.3,0.8
		c-2,0.9-2.4,3-1.3,4.4c3.3,2.9,8,2.9,12.2,4c12,2.3,27.2,5.1,31.2,16.9c2,6.8,0.4,13.9-4.7,19c-11.8,11.4-31.4,11-47.2,7.2
		c-8.9-2.3-17-10.5-17.7-18.7c-0.1-0.8-0.2-1.8-0.2-2.6c2.2-0.1,22.8,0,22.8,0c2,0.6,1.3,3.3,2.9,4.4c3.6,4.4,9.8,4.4,15.4,3.4
		c2-0.8,4.2-1.3,5.6-3.4c0.9-2.1,0-4.6-2.7-5.3c-15.4-5.1-40.6-5.3-41.4-24.5c-0.7-6.5,2.2-11.6,7.8-16c13.2-7,33.9-7.2,47.5-0.5
		C518,474.6,520.3,477.6,522,480.3"/>
	<path class="st1" d="M327.5,160c-39.1,0-70.9,31.7-70.9,70.9c0,39.1,31.7,70.9,70.9,70.9c33,0,60.8-22.6,68.6-53.1
		c1.5-5.7,2.2-11.6,2.2-17.7c0-6.1-0.8-12.1-2.2-17.7h-68.5v35.4h28.9c-6,9.8-16.8,16.3-29,16.3c-18.8,0-34-15.2-34-34
		c0-18.8,15.2-34,34-34c11.1,0,20.9,5.3,27.1,13.5l32.6-17.6C374.6,173,352.6,160,327.5,160"/>
	<polygon class="st1" points="205.7,225.3 116.4,160 116.4,301.7 156.1,301.7 156.1,236.4 245.4,301.7 245.4,160 205.7,160 	"/>
	<polygon class="st1" points="533.1,181 512.8,153.8 446.7,203.1 446.7,160 409.9,160 409.9,301.7 446.7,301.7 446.7,258.5 
		512.8,307.8 533.1,280.6 466.5,230.8 	"/>
</g>
</svg>
